<svg width="56" height="56" viewBox="0 0 56 56" fill="none" xmlns="http://www.w3.org/2000/svg">
<path opacity="0.937" fill-rule="evenodd" clip-rule="evenodd" d="M34.105 42.168C29.986 40.5564 25.7114 39.6978 21.281 39.592C17.8245 39.7512 14.4271 40.2739 11.089 41.16C11.5368 39.2194 12.0222 37.278 12.545 35.336C12.7554 34.4482 12.8674 33.5522 12.881 32.648C7.36893 28.6556 5.61426 23.3916 7.61705 16.856C9.56289 12.5884 12.8295 10.9271 17.417 11.872C20.2394 12.814 22.4422 14.5313 24.025 17.024C22.2694 15.5867 20.2534 14.616 17.977 14.112C13.0389 13.4517 10.1456 15.561 9.29705 20.44C8.89398 23.6064 9.67798 26.4439 11.649 28.952C12.0558 29.471 12.5038 29.9563 12.993 30.408C13.1518 28.1782 12.9838 25.9755 12.489 23.8C12.5278 23.666 12.5838 23.666 12.657 23.8C13.9397 27.1977 14.5184 30.707 14.393 34.328C20.7461 33.2166 26.7194 34.2432 32.313 37.408C33.1234 37.8684 33.8701 38.4097 34.553 39.032C34.5158 39.0693 34.4783 39.1067 34.441 39.144C29.3522 35.9492 23.8269 34.7358 17.865 35.504C16.6669 35.6565 15.4722 35.8245 14.281 36.008C14.2003 36.7972 14.0883 37.5812 13.945 38.36C21.1577 37.1147 27.8777 38.3841 34.105 42.168Z" fill="black"/>
<path opacity="0.954" fill-rule="evenodd" clip-rule="evenodd" d="M38.5839 14.2799C41.1315 14.0614 43.5582 14.4907 45.8639 15.5679C48.3527 17.0514 49.8274 19.2354 50.2879 22.1199C51.2723 29.505 48.1923 34.2277 41.0479 36.2879C40.2348 36.4761 39.4134 36.6068 38.5839 36.6799C38.2213 38.9521 37.7173 41.1921 37.0719 43.3999C37.0159 43.3439 36.9599 43.2879 36.9039 43.2319C37.5702 39.6819 37.6635 36.1165 37.1839 32.5359C37.0143 32.0287 36.7716 31.5621 36.4559 31.1359C35.7916 30.8809 35.1009 30.7502 34.3839 30.7439C31.7526 30.9057 29.1206 31.055 26.4879 31.1919C22.1075 31.2958 18.3742 29.8212 15.2879 26.7679C16.0698 27.1788 16.8538 27.6268 17.6399 28.1119C20.0804 29.2966 22.6564 29.8192 25.3679 29.6799C27.7624 29.4232 30.1517 29.1245 32.5359 28.7839C33.8864 28.6815 35.2304 28.7189 36.5679 28.8959C37.9334 29.366 38.7361 30.318 38.9759 31.7519C39.0074 32.6924 39.0261 33.6258 39.0319 34.5519C41.6821 33.9646 43.9408 32.6952 45.8079 30.7439C47.4408 28.5804 48.0381 26.1537 47.5999 23.4639C46.941 19.242 44.4584 17.1886 40.1519 17.3039C37.9101 17.3417 35.7447 17.771 33.6559 18.5919C30.9193 19.8483 28.1567 21.043 25.3679 22.1759C24.0256 22.6516 22.6443 22.9316 21.2239 23.0159C17.7186 22.7605 15.4786 20.9311 14.5039 17.5279C14.53 17.3676 14.6047 17.3116 14.7279 17.3599C15.779 18.5381 17.011 19.4715 18.4239 20.1599C19.3547 20.5701 20.3254 20.7195 21.3359 20.6079C22.4613 20.407 23.544 20.071 24.5839 19.5999C27.3941 18.1948 30.2314 16.8508 33.0959 15.5679C34.8954 14.9435 36.7247 14.5141 38.5839 14.2799Z" fill="black"/>
<path opacity="0.118" fill-rule="evenodd" clip-rule="evenodd" d="M34.1016 42.168C34.2509 42.2427 34.2509 42.2427 34.1016 42.168V42.168Z" fill="black"/>
</svg>
