<svg width="84" height="49" viewBox="0 0 84 49" fill="none" xmlns="http://www.w3.org/2000/svg">
<path d="M1.248 48.344C0.714667 48.344 0.448 48.0773 0.448 47.544V39.704C0.448 39.2987 0.554667 38.9787 0.768 38.744L5.504 34.008C5.76 33.7733 5.888 33.432 5.888 32.984V1.144C5.888 0.610664 6.15467 0.343998 6.688 0.343998H18.08C18.6133 0.343998 18.88 0.610664 18.88 1.144V40.216C18.88 40.408 18.8587 40.5893 18.816 40.76C18.7733 40.9093 18.6667 41.0693 18.496 41.24L11.872 47.864C11.552 48.184 11.232 48.344 10.912 48.344H1.248ZM23.0265 43C22.4932 43 22.2265 42.7333 22.2265 42.2V1.144C22.2265 0.610664 22.4932 0.343998 23.0265 0.343998H43.2185C43.7092 0.343998 44.1358 0.514665 44.4985 0.855999L50.8985 7.256C51.2398 7.61867 51.4105 8.04533 51.4105 8.536V34.776C51.4105 35.288 51.2398 35.7147 50.8985 36.056L44.4985 42.456C44.1358 42.8187 43.7092 43 43.2185 43H23.0265ZM35.1545 30.776H37.1385C38.0345 30.776 38.4825 30.168 38.4825 28.952V14.36C38.4825 13.1653 38.0345 12.568 37.1385 12.568H35.1545V30.776ZM62.9505 43C62.4598 43 62.0332 42.8187 61.6705 42.456L55.2705 36.056C54.9292 35.7147 54.7585 35.288 54.7585 34.776V1.144C54.7585 0.610664 55.0252 0.343998 55.5585 0.343998H66.8865C67.4198 0.343998 67.6865 0.610664 67.6865 1.144V29.528C67.6865 30.36 68.1025 30.776 68.9345 30.776H70.8225V1.144C70.8225 0.610664 71.0892 0.343998 71.6225 0.343998H82.9825C83.5158 0.343998 83.7825 0.610664 83.7825 1.144V42.2C83.7825 42.7333 83.5158 43 82.9825 43H62.9505Z" fill="#1C274C"/>
</svg>
